<svg width="250" height="61" viewBox="0 0 250 61" fill="none" xmlns="http://www.w3.org/2000/svg">
<path d="M28.608 26.4489H21.5057C21.411 25.7197 21.2169 25.0616 20.9233 24.4744C20.6297 23.8873 20.2415 23.3854 19.7585 22.9688C19.2756 22.5521 18.7027 22.2348 18.0398 22.017C17.3864 21.7898 16.6619 21.6761 15.8665 21.6761C14.4555 21.6761 13.2386 22.0218 12.2159 22.7131C11.2027 23.4044 10.4214 24.4034 9.87216 25.7102C9.33239 27.017 9.0625 28.5985 9.0625 30.4545C9.0625 32.3864 9.33712 34.0057 9.88636 35.3125C10.4451 36.6098 11.2263 37.59 12.2301 38.2528C13.2434 38.9062 14.4413 39.233 15.8239 39.233C16.6004 39.233 17.3059 39.1335 17.9403 38.9347C18.5843 38.7358 19.1477 38.447 19.6307 38.0682C20.1231 37.6799 20.5256 37.2112 20.8381 36.6619C21.16 36.1032 21.3826 35.4735 21.5057 34.7727L28.608 34.8153C28.4848 36.1032 28.1108 37.3722 27.4858 38.6222C26.8703 39.8722 26.0227 41.0133 24.9432 42.0455C23.8636 43.0682 22.5473 43.8826 20.9943 44.4886C19.4508 45.0947 17.6799 45.3977 15.6818 45.3977C13.0492 45.3977 10.6913 44.8201 8.60795 43.6648C6.53409 42.5 4.89583 40.8049 3.69318 38.5795C2.49053 36.3542 1.8892 33.6458 1.8892 30.4545C1.8892 27.2538 2.5 24.5407 3.72159 22.3153C4.94318 20.09 6.59564 18.3996 8.67898 17.2443C10.7623 16.089 13.0966 15.5114 15.6818 15.5114C17.4432 15.5114 19.072 15.7576 20.5682 16.25C22.0644 16.733 23.3807 17.4432 24.517 18.3807C25.6534 19.3087 26.5767 20.4498 27.2869 21.804C27.9972 23.1581 28.4375 24.7064 28.608 26.4489ZM38.1818 45H30.625L40.4403 15.9091H49.8011L59.6165 45H52.0597L45.2273 23.2386H45L38.1818 45ZM37.1733 33.5511H52.9688V38.892H37.1733V33.5511ZM62.7486 45V15.9091H74.7656C76.9437 15.9091 78.8234 16.3021 80.4048 17.0881C81.9957 17.8646 83.2221 18.982 84.0838 20.4403C84.9455 21.8892 85.3764 23.608 85.3764 25.5966C85.3764 27.6136 84.9361 29.3277 84.0554 30.7386C83.1747 32.1402 81.9247 33.2102 80.3054 33.9489C78.6861 34.678 76.7685 35.0426 74.5526 35.0426H66.9531V29.5028H73.2457C74.3063 29.5028 75.1918 29.3655 75.902 29.0909C76.6217 28.8068 77.1662 28.3807 77.5355 27.8125C77.9048 27.2348 78.0895 26.4962 78.0895 25.5966C78.0895 24.697 77.9048 23.9536 77.5355 23.3665C77.1662 22.7699 76.6217 22.3248 75.902 22.0312C75.1823 21.7282 74.2969 21.5767 73.2457 21.5767H69.7798V45H62.7486ZM79.1264 31.7045L86.3707 45H78.7003L71.598 31.7045H79.1264ZM96.2642 15.9091V45H89.233V15.9091H96.2642ZM100.678 45V15.9091H112.809C114.987 15.9091 116.81 16.2169 118.278 16.8324C119.755 17.4479 120.863 18.3097 121.602 19.4176C122.35 20.5256 122.724 21.8087 122.724 23.267C122.724 24.375 122.492 25.3646 122.028 26.2358C121.564 27.0975 120.924 27.8125 120.11 28.3807C119.296 28.9489 118.353 29.3466 117.283 29.5739V29.858C118.458 29.9148 119.542 30.232 120.536 30.8097C121.54 31.3873 122.345 32.1922 122.951 33.2244C123.557 34.2472 123.86 35.4593 123.86 36.8608C123.86 38.4233 123.462 39.8201 122.667 41.0511C121.871 42.2727 120.721 43.2386 119.215 43.9489C117.71 44.6496 115.882 45 113.732 45H100.678ZM107.71 39.3324H112.056C113.581 39.3324 114.703 39.0436 115.423 38.4659C116.152 37.8883 116.516 37.0833 116.516 36.0511C116.516 35.303 116.341 34.6591 115.991 34.1193C115.64 33.5701 115.143 33.1487 114.499 32.8551C113.855 32.5521 113.084 32.4006 112.184 32.4006H107.71V39.3324ZM107.71 27.8693H111.602C112.369 27.8693 113.05 27.7415 113.647 27.4858C114.244 27.2301 114.708 26.8608 115.039 26.3778C115.38 25.8949 115.55 25.3125 115.55 24.6307C115.55 23.6553 115.205 22.8883 114.513 22.3295C113.822 21.7708 112.889 21.4915 111.715 21.4915H107.71V27.8693ZM127.241 45V15.9091H147.525V21.6193H134.272V27.5852H146.488V33.3097H134.272V39.2898H147.525V45H127.241ZM159.045 15.9091L164.357 25.0994H164.585L169.954 15.9091H177.823L169.045 30.4545L178.107 45H170.039L164.585 35.7102H164.357L158.903 45H150.891L159.911 30.4545L151.119 15.9091H159.045Z" fill="#48484D"/>
<path d="M247.575 32.909C247.082 28.0946 246.272 27.1569 245.965 26.8043C245.261 25.9893 244.135 25.4568 242.943 24.898C242.875 24.8669 242.817 24.8226 242.773 24.7686C242.728 24.7146 242.699 24.6523 242.687 24.5867C242.675 24.5211 242.68 24.4539 242.703 24.3905C242.726 24.3271 242.765 24.2692 242.818 24.2213C243.039 24.0262 243.209 23.7917 243.316 23.534C243.422 23.2763 243.464 23.0015 243.438 22.7285C243.386 22.2443 243.128 21.7946 242.714 21.4687C242.3 21.1427 241.76 20.9643 241.202 20.9688H239.069C238.978 20.9692 238.887 20.9744 238.796 20.9842C238.734 20.9607 238.669 20.942 238.603 20.9282C237.34 18.6014 235.61 15.4156 232.026 13.8608C226.709 11.5566 216.914 11.4375 215 11.4375C213.086 11.4375 203.291 11.5566 197.981 13.8572C194.397 15.412 192.667 18.5979 191.404 20.9247L191.393 20.9437C191.33 20.9514 191.268 20.965 191.208 20.9842C191.118 20.9744 191.026 20.9692 190.935 20.9688H188.798C188.24 20.9643 187.7 21.1427 187.286 21.4687C186.872 21.7946 186.614 22.2443 186.563 22.7285C186.538 23.0009 186.582 23.2746 186.69 23.531C186.798 23.7875 186.969 24.0205 187.19 24.2141C187.243 24.262 187.282 24.3199 187.305 24.3833C187.328 24.4468 187.334 24.5139 187.322 24.5795C187.31 24.6452 187.28 24.7074 187.236 24.7615C187.191 24.8155 187.133 24.8598 187.066 24.8909C185.873 25.4532 184.741 25.9858 184.043 26.7971C183.737 27.1545 182.927 28.0874 182.434 32.9019C182.16 35.6111 182.119 38.4157 182.334 40.2219C182.784 43.9748 183.627 46.2432 183.663 46.3374C183.792 46.6799 184.03 46.9834 184.35 47.2126C184.669 47.4418 185.057 47.5874 185.467 47.6324V47.6562C185.467 48.1618 185.698 48.6467 186.108 49.0042C186.518 49.3617 187.075 49.5625 187.655 49.5625H195.311C195.891 49.5625 196.448 49.3617 196.858 49.0042C197.268 48.6467 197.499 48.1618 197.499 47.6562C198.676 47.6562 199.495 47.4728 200.363 47.2774C201.616 46.9832 202.898 46.7874 204.191 46.6924C208.362 46.3457 212.51 46.2266 215 46.2266C217.439 46.2266 221.77 46.3457 225.948 46.6924C227.247 46.7874 228.533 46.984 229.792 47.2798C230.623 47.4656 231.412 47.6372 232.504 47.6551C232.504 48.1606 232.735 48.6455 233.145 49.003C233.555 49.3605 234.111 49.5613 234.692 49.5613H242.348C242.928 49.5613 243.484 49.3605 243.895 49.003C244.305 48.6455 244.535 48.1606 244.535 47.6551V47.6408C244.947 47.5966 245.336 47.4514 245.656 47.2221C245.977 46.9928 246.216 46.6889 246.346 46.3457C246.381 46.2516 247.225 43.9831 247.674 40.2302C247.889 38.4229 247.851 35.623 247.575 32.909ZM195.358 22.5545C196.451 20.5291 197.702 18.2369 199.93 17.2706C203.148 15.8743 209.818 15.2452 215 15.2452C220.182 15.2452 226.852 15.8695 230.071 17.2706C232.298 18.2369 233.543 20.5303 234.642 22.5545L234.779 22.813C234.859 22.9602 234.894 23.1228 234.882 23.2853C234.869 23.4477 234.809 23.6047 234.707 23.7411C234.605 23.8775 234.465 23.9889 234.299 24.0647C234.134 24.1404 233.949 24.1779 233.762 24.1736C229.219 24.0664 219.648 23.7233 215 23.7233C210.352 23.7233 200.781 24.0747 196.231 24.182C196.044 24.1862 195.86 24.1487 195.694 24.073C195.529 23.9973 195.388 23.8859 195.286 23.7495C195.184 23.613 195.124 23.4561 195.111 23.2936C195.099 23.1311 195.134 22.9686 195.214 22.8214C195.262 22.7332 195.313 22.6439 195.358 22.5545ZM196.989 32.0417C194.637 32.2884 192.27 32.4101 189.901 32.4062C188.452 32.4062 186.958 32.0488 186.68 30.9241C186.49 30.1676 186.511 29.7423 186.613 29.3146C186.699 28.9512 186.836 28.6867 187.52 28.5938C189.297 28.3555 190.291 28.6545 193.2 29.4015C195.129 29.896 196.521 30.5548 197.314 31.0766C197.712 31.334 197.5 32.0059 196.989 32.0417ZM227.256 41.8112C225.456 41.9899 221.858 41.9244 215.041 41.9244C208.224 41.9244 204.627 41.9899 202.828 41.8112C200.971 41.6313 198.605 40.1015 200.221 38.7386C201.297 37.8403 203.807 37.1683 207.15 36.7906C210.492 36.4129 211.907 36.2188 215.027 36.2188C218.147 36.2188 219.419 36.3379 222.905 36.7918C226.391 37.2457 229.026 37.926 229.834 38.7398C231.308 40.198 229.111 41.6218 227.256 41.8184V41.8112ZM243.32 30.9229C243.047 32.0524 241.543 32.4051 240.099 32.4051C237.685 32.4055 235.273 32.2838 232.875 32.0405C232.456 32.0059 232.262 31.3662 232.686 31.0754C233.467 30.5405 234.873 29.8948 236.8 29.4003C239.709 28.6533 241.387 28.3543 242.828 28.6033C243.179 28.664 243.365 28.9929 243.387 29.199C243.484 29.7729 243.461 30.3572 243.32 30.9241V30.9229Z" fill="#4C4B4F"/>
</svg>
